<svg 
 xmlns="http://www.w3.org/2000/svg"
 xmlns:xlink="http://www.w3.org/1999/xlink"
 width="55px" height="44px">
<path
 d="M54.757,22.977 L52.642,25.515 C52.459,25.720 52.221,25.847 51.925,25.892 L51.823,25.892 C51.527,25.892 51.289,25.812 51.106,25.653 L27.500,5.864 L3.894,25.653 C3.621,25.836 3.348,25.916 3.075,25.893 C2.779,25.847 2.540,25.721 2.358,25.515 L0.243,22.977 C0.061,22.749 -0.019,22.480 0.004,22.171 C0.028,21.862 0.152,21.617 0.380,21.434 L24.908,0.891 C25.636,0.297 26.500,-0.000 27.501,-0.000 C28.501,-0.000 29.366,0.297 30.093,0.891 L38.416,7.888 L38.416,1.200 C38.416,0.881 38.518,0.617 38.723,0.412 C38.928,0.206 39.189,0.103 39.508,0.103 L46.057,0.103 C46.376,0.103 46.638,0.206 46.842,0.412 C47.047,0.617 47.149,0.881 47.149,1.200 L47.149,15.193 L54.620,21.434 C54.846,21.617 54.972,21.863 54.995,22.171 C55.018,22.479 54.939,22.748 54.757,22.977 ZM7.885,25.138 L27.500,8.882 L47.115,25.138 C47.137,25.183 47.150,25.252 47.150,25.343 L47.150,41.804 C47.150,42.399 46.933,42.914 46.501,43.347 C46.069,43.782 45.557,44.000 44.966,44.000 L31.867,44.000 L31.867,30.830 L23.133,30.830 L23.133,44.000 L10.034,44.000 C9.443,44.000 8.931,43.781 8.499,43.347 C8.067,42.914 7.850,42.398 7.850,41.804 L7.850,25.343 C7.850,25.320 7.856,25.286 7.868,25.241 C7.879,25.195 7.885,25.161 7.885,25.138 Z"/>
</svg>